<svg xmlns="http://www.w3.org/2000/svg" width="500" height="500"><circle r="250" cx="250" cy="250" fill="#eee"></circle><g transform="translate(400, 250)"><path d="M-1,-1L1,-1A1,1,0,1,1,1,1L-1,1Z" stroke="#777" stroke-width="0.2" fill="none" transform="rotate(0) scale(30)"></path></g><g transform="translate(379.9038105676658, 325)"><path d="M-1,-1L1,-1A1,1,0,1,1,1,1L-1,1Z" stroke="#777" stroke-width="0.2" fill="none" transform="rotate(30) scale(30)"></path></g><g transform="translate(325, 379.9038105676658)"><path d="M-1,-1L1,-1A1,1,0,1,1,1,1L-1,1Z" stroke="#777" stroke-width="0.2" fill="none" transform="rotate(60) scale(30)"></path></g><g transform="translate(250, 400)"><path d="M-1,-1L1,-1A1,1,0,1,1,1,1L-1,1Z" stroke="#777" stroke-width="0.2" fill="none" transform="rotate(90) scale(30)"></path></g><g transform="translate(175.00000000000003, 379.9038105676658)"><path d="M-1,-1L1,-1A1,1,0,1,1,1,1L-1,1Z" stroke="#777" stroke-width="0.2" fill="none" transform="rotate(120) scale(30)"></path></g><g transform="translate(120.0961894323342, 325)"><path d="M-1,-1L1,-1A1,1,0,1,1,1,1L-1,1Z" stroke="#777" stroke-width="0.2" fill="none" transform="rotate(150) scale(30)"></path></g><g transform="translate(100, 250.00000000000003)"><path d="M-1,-1L1,-1A1,1,0,1,1,1,1L-1,1Z" stroke="#777" stroke-width="0.2" fill="none" transform="rotate(180) scale(30)"></path></g><g transform="translate(120.0961894323342, 175)"><path d="M-1,-1L1,-1A1,1,0,1,1,1,1L-1,1Z" stroke="#777" stroke-width="0.2" fill="none" transform="rotate(210) scale(30)"></path></g><g transform="translate(174.99999999999994, 120.09618943233423)"><path d="M-1,-1L1,-1A1,1,0,1,1,1,1L-1,1Z" stroke="#777" stroke-width="0.2" fill="none" transform="rotate(240) scale(30)"></path></g><g transform="translate(249.99999999999997, 100)"><path d="M-1,-1L1,-1A1,1,0,1,1,1,1L-1,1Z" stroke="#777" stroke-width="0.2" fill="none" transform="rotate(270) scale(30)"></path></g><g transform="translate(325, 120.0961894323342)"><path d="M-1,-1L1,-1A1,1,0,1,1,1,1L-1,1Z" stroke="#777" stroke-width="0.2" fill="none" transform="rotate(300) scale(30)"></path></g><g transform="translate(379.90381056766574, 174.99999999999994)"><path d="M-1,-1L1,-1A1,1,0,1,1,1,1L-1,1Z" stroke="#777" stroke-width="0.2" fill="none" transform="rotate(330) scale(30)"></path></g><circle r="100" cx="250" cy="250" fill="#ff0000"></circle><g transform="translate(250, 250)"><rect width="20" height="6" x="-10" y="-3" fill="#fff" transform="scale(6.25)"></rect><rect width="6" height="20" x="-3" y="-10" fill="#fff" transform="scale(6.25)"></rect></g></svg>